REM MD5 0205ef86f46ab9c7b35071c5b9f254e2
FILE "Tokimeki Memorial 2 Substories - Dancing Summer Vacation (Japan) (Disc 1).bin" BINARY
  TRACK 01 MODE2/2352
    FLAGS DCP
    INDEX 01 00:00:00
  TRACK 02 AUDIO
    FLAGS DCP
    INDEX 00 66:11:25
    INDEX 01 66:13:25
  TRACK 03 AUDIO
    FLAGS DCP
    INDEX 00 67:43:55
    INDEX 01 67:45:55
REM LEADOUT 70:46:23
